<?xml version="1.0" encoding="UTF-8"?>
<svg version="1.1" xmlns="http://www.w3.org/2000/svg" width="4268" height="1553">
<path d="M0 0 C2.7861027 0.00260244 5.57219823 0.00064729 8.35830116 -0.00109577 C15.00769845 -0.00267455 21.6569717 0.01101724 28.30633733 0.03040821 C36.016655 0.05220947 43.72690069 0.05440335 51.43725586 0.0567627 C71.74415995 0.07244359 92.05103698 0.1143274 112.35791016 0.15307617 C180.48228516 0.24588867 180.48228516 0.24588867 249.98291016 0.34057617 C249.98291016 121.12057617 249.98291016 241.90057617 249.98291016 366.34057617 C204.11291016 366.34057617 158.24291016 366.34057617 110.98291016 366.34057617 C110.98291016 293.08057617 110.98291016 219.82057617 110.98291016 144.34057617 C55.08625467 140.7751765 55.08625467 140.7751765 5.98291016 163.34057617 C-11.11905329 182.6599741 -12.46931472 202.72296062 -12.42114258 227.25585938 C-12.42685128 229.88203216 -12.43381748 232.50820247 -12.44194031 235.1343689 C-12.45905611 241.50343914 -12.45998334 247.87241042 -12.4547274 254.24149767 C-12.45067057 259.42364985 -12.45214713 264.605773 -12.45747566 269.78792381 C-12.45822408 270.52811505 -12.45897251 271.26830629 -12.45974361 272.03092756 C-12.46127524 273.53508893 -12.46281358 275.03925029 -12.46435858 276.54341163 C-12.47805775 290.62042369 -12.47266437 304.69738002 -12.46117336 318.77439078 C-12.45124594 331.62149857 -12.46417774 344.46846223 -12.48810755 357.3155478 C-12.51255576 370.54171671 -12.52209227 383.76781865 -12.51545483 396.99400967 C-12.51197499 404.40556257 -12.51411234 411.81700475 -12.53170586 419.22854042 C-12.54649977 425.53839082 -12.54697037 431.84805255 -12.52963495 438.15789954 C-12.52118066 441.37015567 -12.52104501 444.58201027 -12.5342865 447.79426003 C-12.62315679 471.14842718 -10.16849945 491.76790387 6.98291016 509.34057617 C23.07711179 523.06656195 39.90234594 526.28804361 60.45852661 526.67077637 C110.06017222 527.67541517 166.29023581 534.30341868 202.98291016 571.34057617 C232.19759262 602.92498342 237.34378009 647.16559832 238.4855957 688.40722656 C238.54330964 690.45359778 238.60940061 692.49956489 238.67626953 694.5456543 C238.99998005 705.36321847 239.00538232 716.17681405 238.99438477 726.99804688 C238.99346187 728.58812709 238.99262454 730.17820735 238.99187469 731.76828766 C238.9898721 735.62571847 238.98671446 739.48314673 238.98291016 743.34057617 C237.98752731 743.34204273 236.99214447 743.34350929 235.96659851 743.34502029 C211.69305701 743.38169332 187.41965265 743.44124486 163.14622498 743.52447891 C151.40753973 743.56420708 139.66892091 743.59663114 127.93017578 743.61157227 C117.69296924 743.62462108 107.45590926 743.65166791 97.21878529 743.69518924 C91.80347777 743.71773151 86.38835054 743.73349121 80.97299194 743.73246002 C75.86426649 743.73170912 70.75593848 743.74983125 65.64731598 743.781744 C63.78348863 743.79018512 61.91961639 743.79203285 60.0557785 743.78637886 C39.259046 743.73174917 21.69664884 747.75298876 5.98291016 762.34057617 C-11.5652886 780.30204772 -12.46763194 802.57995931 -12.42114258 826.25585938 C-12.42685128 828.88203216 -12.43381748 831.50820247 -12.44194031 834.1343689 C-12.45905611 840.50343914 -12.45998334 846.87241042 -12.4547274 853.24149767 C-12.45067057 858.42364985 -12.45214713 863.605773 -12.45747566 868.78792381 C-12.45822408 869.52811505 -12.45897251 870.26830629 -12.45974361 871.03092756 C-12.46127524 872.53508893 -12.46281358 874.03925029 -12.46435858 875.54341163 C-12.47805775 889.62042369 -12.47266437 903.69738002 -12.46117336 917.77439078 C-12.45124594 930.62149857 -12.46417774 943.46846223 -12.48810755 956.3155478 C-12.51255576 969.54171671 -12.52209227 982.76781865 -12.51545483 995.99400967 C-12.51197499 1003.40556257 -12.51411234 1010.81700475 -12.53170586 1018.22854042 C-12.54649977 1024.53839082 -12.54697037 1030.84805255 -12.52963495 1037.15789954 C-12.52118066 1040.37015567 -12.52104501 1043.58201027 -12.5342865 1046.79426003 C-12.62779738 1071.36792462 -9.39989804 1090.46125044 7.70947266 1109.23510742 C11.86239868 1113.28741189 16.61443972 1115.95521639 21.73291016 1118.59057617 C22.6794043 1119.08485107 22.6794043 1119.08485107 23.64501953 1119.58911133 C34.74732273 1125.03168975 46.08411656 1125.80239837 58.24853516 1125.85229492 C59.6064607 1125.86780681 60.96437209 1125.88461163 62.32226562 1125.90270996 C67.29232511 1125.96007406 72.26264587 1125.99265289 77.23291016 1126.02807617 C88.37041016 1126.13120117 99.50791016 1126.23432617 110.98291016 1126.34057617 C110.98291016 1094.00057617 110.98291016 1061.66057617 110.98291016 1028.34057617 C156.85291016 1028.34057617 202.72291016 1028.34057617 249.98291016 1028.34057617 C249.98291016 1108.20057617 249.98291016 1188.06057617 249.98291016 1270.34057617 C180.27241393 1270.46157022 180.27241393 1270.46157022 151.07275391 1270.48706055 C144.39029926 1270.49293331 137.70784482 1270.49899451 131.02539062 1270.50537109 C130.18796487 1270.50616234 129.35053911 1270.50695359 128.48773682 1270.50776881 C115.00468613 1270.52078257 101.52167421 1270.544415 88.03864643 1270.57203456 C74.18008019 1270.6001846 60.32153411 1270.61677262 46.46294045 1270.62284166 C37.9257194 1270.62693829 29.3886079 1270.63983134 20.85142061 1270.66432557 C14.98067729 1270.68030157 9.1099898 1270.68495001 3.23922637 1270.6810803 C-0.13746259 1270.67917697 -3.51380972 1270.68358433 -6.89048958 1270.6981926 C-25.14608956 1270.77323836 -43.38884629 1270.32663332 -60.95458984 1264.77807617 C-61.75832031 1264.52977051 -62.56205078 1264.28146484 -63.39013672 1264.02563477 C-102.93666364 1251.17683075 -134.04743276 1222.15952643 -153.08544922 1185.69580078 C-164.60580674 1162.5904817 -169.16883207 1138.48846016 -169.16426086 1112.86564636 C-169.16756421 1111.18508851 -169.17129076 1109.50453145 -169.17540234 1107.82397538 C-169.18537694 1103.21967691 -169.18913178 1098.61539146 -169.19179165 1094.01108372 C-169.19570822 1089.0394372 -169.20528555 1084.06780087 -169.21400452 1079.09616089 C-169.23373036 1067.09674638 -169.24383001 1055.09733108 -169.25273231 1043.09790441 C-169.25712139 1037.43960593 -169.26248657 1031.78130838 -169.26772118 1026.12301064 C-169.28472924 1007.30091007 -169.29922204 988.47881007 -169.30646992 969.656703 C-169.30837964 964.77666918 -169.3103 959.89663536 -169.31225586 955.01660156 C-169.3127396 953.80377584 -169.31322334 952.59095012 -169.31372174 951.34137211 C-169.32201704 931.70688574 -169.34734744 912.07246039 -169.37983654 892.43800064 C-169.41295864 872.25559645 -169.43092331 852.07322322 -169.43411416 831.89079171 C-169.43627443 820.56889675 -169.44495235 809.24709078 -169.47057533 797.9252224 C-169.49235275 788.2806321 -169.50029822 778.63615243 -169.49060855 768.99154034 C-169.48608427 764.07764197 -169.48784025 759.16397155 -169.50737 754.2501049 C-169.65300947 715.41791312 -164.81476654 682.3864253 -136.39208984 653.21557617 C-120.80516389 637.73428133 -100.74675316 627.67354709 -79.01708984 624.34057617 C-80.20302734 624.06084961 -81.38896484 623.78112305 -82.61083984 623.49291992 C-111.30869688 616.48769638 -136.01708804 601.50588611 -152.20458984 576.09057617 C-161.98205363 559.33484186 -169.12747913 541.14744774 -169.14851761 521.47277451 C-169.15057024 520.81530094 -169.15262288 520.15782737 -169.15473771 519.48043036 C-169.16037473 517.28582357 -169.15895456 515.0912802 -169.15753174 512.89666748 C-169.16011729 511.30374398 -169.16313099 509.71082114 -169.16653514 508.11789918 C-169.1745865 503.74658239 -169.17639368 499.37528203 -169.17713261 495.0039587 C-169.1789865 490.28656005 -169.18653569 485.56916986 -169.19326782 480.85177612 C-169.20684011 470.53719544 -169.21287462 460.22261864 -169.21727848 449.90803051 C-169.22004371 443.46190242 -169.22428167 437.01577582 -169.22878265 430.56964874 C-169.24097566 412.70754465 -169.25127375 394.84544175 -169.25465775 376.98333359 C-169.25487731 375.84042595 -169.25509688 374.69751831 -169.2553231 373.51997711 C-169.25554137 372.37438772 -169.25575965 371.22879832 -169.25598454 370.0484941 C-169.256428 367.727235 -169.25687457 365.4059759 -169.25732422 363.0847168 C-169.25754565 361.93330067 -169.25776708 360.78188455 -169.25799522 359.59557703 C-169.261939 340.95937739 -169.27938005 322.32321695 -169.30268374 303.68703243 C-169.32643926 284.53413734 -169.33886157 265.38126188 -169.34002566 246.22835183 C-169.34094025 235.48271567 -169.34663768 224.73713054 -169.36484528 213.99150848 C-169.38030328 204.83653057 -169.3853334 195.68161946 -169.37710717 186.52663097 C-169.37322028 181.86201437 -169.37403335 177.19753205 -169.38816452 172.53293228 C-169.53549069 120.87424605 -157.51375942 78.62744579 -120.73583984 40.94604492 C-105.74195483 26.05424082 -86.8850606 15.25297433 -67.01708984 8.34057617 C-66.37513672 8.1153125 -65.73318359 7.89004883 -65.07177734 7.65795898 C-43.88695201 0.37827145 -22.19389407 -0.09711922 0 0 Z " fill="#F68525" transform="translate(187.01708984375,135.659423828125)"/>
<path d="M0 0 C45.41625 -0.061875 90.8325 -0.12375 137.625 -0.1875 C151.9382666 -0.21481201 166.2515332 -0.24212402 180.99853516 -0.27026367 C198.5456543 -0.28381348 198.5456543 -0.28381348 206.77352905 -0.28633118 C212.49093376 -0.28911369 218.20824918 -0.30005358 223.92562866 -0.31672668 C230.53770695 -0.33598001 237.14970048 -0.34447157 243.76180693 -0.34033485 C247.13585615 -0.33854684 250.50956674 -0.34288079 253.88360524 -0.35764539 C275.55797869 -0.44800917 296.42494579 0.7364057 317 8 C317.6398584 8.22558594 318.2797168 8.45117188 318.93896484 8.68359375 C339.63049978 16.14836151 357.11750867 27.80805177 373 43 C373.6703125 43.61875 374.340625 44.2375 375.03125 44.875 C402.15426121 70.70643925 418.30525884 110.1516504 419.3645916 147.26351738 C419.57015376 156.30979507 419.53821187 165.3587813 419.50823963 174.40673053 C419.4969957 179.14357105 419.50911589 183.88036526 419.51808167 188.61720276 C419.53192372 197.86318126 419.5245264 207.10902202 419.50940608 216.35499381 C419.49244344 227.14271804 419.49576888 237.93040894 419.49950016 248.7181424 C419.50536167 267.9728485 419.49127188 287.22748894 419.46655273 306.48217773 C419.44261361 325.1316168 419.43555979 343.78096825 419.44604492 362.43041992 C419.45747081 382.78934333 419.45936537 403.14822635 419.44494683 423.50714928 C419.44342113 425.68028867 419.44190077 427.85342806 419.44038582 430.02656746 C419.439628 431.09553435 419.43887019 432.16450125 419.43808941 433.26586108 C419.43336133 440.77221693 419.43518734 448.27855464 419.43945122 455.7849102 C419.44439277 464.9363073 419.43832666 474.08762182 419.41855692 483.23900007 C419.40873056 487.90132016 419.40352926 492.56351489 419.41144943 497.22584152 C419.4185671 501.50341688 419.41156141 505.78074063 419.3938458 510.0582831 C419.38984057 511.5955504 419.39073407 513.13284109 419.39736467 514.67009931 C419.51741655 545.1392281 408.17367332 572.95664831 386.8125 594.75 C370.30312233 611.03633431 351.26434865 618.74851776 329 624 C330.56234375 624.31130859 330.56234375 624.31130859 332.15625 624.62890625 C351.25773326 628.65003468 366.96926468 636.52070042 382 649 C382.85335938 649.66644531 383.70671875 650.33289063 384.5859375 651.01953125 C404.47581808 667.33695755 415.44104121 694.10786243 419 719 C419.08994864 721.36668098 419.12903915 723.7355649 419.13142776 726.10395336 C419.1334804 726.79910568 419.13553303 727.494258 419.13764787 728.21047553 C419.14330117 730.539276 419.14186267 732.86801702 419.14044189 735.19682312 C419.14302652 736.88375393 419.14603995 738.57068413 419.1494453 740.25761348 C419.1575077 744.89342563 419.15930445 749.52922228 419.16004276 754.16504061 C419.16189474 759.16534949 419.16944302 764.16565035 419.17617798 769.16595459 C419.18975846 780.10247556 419.19578615 791.03899285 419.20018864 801.97552085 C419.20295267 808.80909347 419.20719043 815.64266468 419.21169281 822.47623634 C419.22388724 841.40802134 419.23418482 860.33980521 419.2375679 879.27159405 C419.23778747 880.48329187 419.23800703 881.69498968 419.23823325 882.94340562 C419.23845153 884.15796691 419.23866981 885.37252821 419.2388947 886.62389439 C419.23933816 889.08495629 419.23978473 891.54601818 419.24023438 894.00708008 C419.2404558 895.22784584 419.24067723 896.44861161 419.24090537 897.70637027 C419.24484905 917.4645748 419.26228916 937.22274235 419.2855939 956.98093262 C419.30934475 977.28188856 419.32177152 997.58282598 419.32293582 1017.88379604 C419.32385071 1029.2755499 419.32955569 1040.66725564 419.34775543 1052.0589962 C419.36320715 1061.76479421 419.36824724 1071.47052923 419.36001733 1081.1763372 C419.35612815 1086.12245602 419.35695495 1091.06844818 419.37107468 1096.01455116 C419.38391886 1100.55570049 419.38252508 1105.09662938 419.37048396 1109.63777886 C419.36854494 1111.26780778 419.37152072 1112.89785289 419.38032833 1114.52785917 C419.45716911 1129.7292892 417.70599492 1144.81962205 413.375 1159.4375 C413.12266602 1160.29819092 412.87033203 1161.15888184 412.61035156 1162.0456543 C405.03319581 1186.77952687 391.50204242 1207.19461399 374 1226 C373.37609375 1226.67804688 372.7521875 1227.35609375 372.109375 1228.0546875 C355.82393573 1245.09281514 333.54643418 1257.34947193 311.1875 1264.3125 C310.46731689 1264.54283936 309.74713379 1264.77317871 309.00512695 1265.01049805 C290.66563168 1270.37436245 271.87315237 1270.42250869 252.93457031 1270.34057617 C250.16318011 1270.33804695 247.39179741 1270.34007693 244.6204071 1270.34190369 C238.69534436 1270.34346365 232.77038204 1270.33418983 226.84534454 1270.31719017 C218.2791448 1270.29262892 209.71299276 1270.28497757 201.14676163 1270.2812262 C187.24283321 1270.27468829 173.33895812 1270.25480007 159.43505859 1270.22631836 C145.94254821 1270.19870841 132.45005247 1270.17754342 118.95751953 1270.16479492 C118.11496113 1270.16399093 117.27240273 1270.16318694 116.40431225 1270.16235858 C109.81326319 1270.15611895 103.22221381 1270.15024866 96.63116431 1270.14449489 C64.42072724 1270.11628203 32.21042392 1270.0559065 0 1270 C0 1190.14 0 1110.28 0 1028 C45.87 1028 91.74 1028 139 1028 C139 1060.34 139 1092.68 139 1126 C150.075625 1125.9175 161.15125 1125.835 172.5625 1125.75 C176.0282251 1125.73420898 179.4939502 1125.71841797 183.06469727 1125.70214844 C186.23787617 1125.6688299 186.23787617 1125.6688299 189.41099548 1125.63043213 C190.79778107 1125.61604995 192.18465791 1125.60905555 193.57151794 1125.60845947 C212.89598129 1125.58598805 230.13742985 1120.64379947 244.4296875 1106.8515625 C254.57042827 1095.6011966 262.10030908 1080.61302314 262.13422108 1065.1943531 C262.14090784 1063.77729566 262.14090784 1063.77729566 262.14772969 1062.3316108 C262.14754533 1061.30195981 262.14736097 1060.27230883 262.14717102 1059.2114563 C262.15268605 1057.56095931 262.15268605 1057.56095931 262.1583125 1055.87711895 C262.16934327 1052.18256026 262.17319221 1048.48802971 262.17700195 1044.79345703 C262.18326718 1042.14713881 262.18990147 1039.50082358 262.19691467 1036.85450745 C262.21665522 1028.90687923 262.22674346 1020.95924978 262.23564246 1013.01160318 C262.24003041 1009.2638572 262.245396 1005.51611263 262.25063133 1001.76836777 C262.26764326 989.30041103 262.28213484 976.83245516 262.28938007 964.3644886 C262.29128981 961.1306877 262.29321016 957.89688681 262.29516602 954.66308594 C262.29564976 953.8593915 262.2961335 953.05569706 262.2966319 952.22764824 C262.30492252 939.22417093 262.3302432 926.2207859 262.36274669 913.21734883 C262.39588527 899.85019958 262.41383507 886.48309711 262.41702431 873.1159066 C262.41918342 865.61761939 262.42784353 858.11946665 262.45348549 850.62121964 C262.47528584 844.23174879 262.48319749 837.84244507 262.47351871 831.45294125 C262.4690004 828.19832124 262.47293574 824.94411422 262.49028015 821.68952751 C262.60420744 799.03350631 260.33779376 779.27381319 244 762 C227.7057887 746.29136191 209.19420759 743.54699828 187.6237793 743.56762695 C185.7006976 743.55859397 183.77762163 743.54826302 181.85455322 743.53674316 C176.67158853 743.5093275 171.48873355 743.49990974 166.30570579 743.49388909 C160.87513169 743.48446501 155.44463824 743.45825852 150.01411438 743.43388367 C139.74747451 743.39032555 129.48085039 743.36171305 119.21414644 743.33856028 C107.51873659 743.31145115 95.82340832 743.26754327 84.12805688 743.22227156 C60.08541557 743.12957845 36.04274868 743.05782769 12 743 C11.92910319 734.7997098 11.87650638 726.59955676 11.84456348 718.39903164 C11.8291985 714.58727809 11.80852879 710.77574051 11.77368164 706.96411133 C11.37603024 662.2151561 12.36525964 608.60132895 45 574 C45.44569336 573.5148291 45.89138672 573.0296582 46.35058594 572.52978516 C77.49399625 538.7893094 125.99887287 529.4090492 170 527 C176.20988858 526.78165932 182.4216284 526.63761071 188.63427734 526.52319336 C207.4365027 526.16285693 223.82526799 523.97863801 239 512 C239.63550781 511.52820313 240.27101563 511.05640625 240.92578125 510.5703125 C252.75454134 501.28565381 259.76956588 485.59660727 262 471 C262.73799503 462.24640293 262.54788557 453.43481306 262.51757812 444.65820312 C262.5230061 442.01039226 262.52998951 439.36262603 262.53881836 436.71482849 C262.55650224 430.30088161 262.55280922 423.88712313 262.5411678 417.47316921 C262.5320935 412.25529567 262.53092663 407.03747452 262.53526306 401.81959534 C262.53618246 400.70095578 262.53618246 400.70095578 262.53712043 399.55971745 C262.53839948 398.04419941 262.53969633 396.52868139 262.5410108 395.01316339 C262.55238691 380.83886532 262.5393497 366.66467114 262.51780933 352.49039012 C262.49994104 340.35731098 262.50304598 328.22438498 262.52148438 316.09130859 C262.54294378 301.96391456 262.55128855 287.83661131 262.53903532 273.70920324 C262.53776127 272.19960373 262.53650379 270.6900042 262.53526306 269.18040466 C262.53464596 268.43786628 262.53402886 267.69532789 262.53339306 266.93028834 C262.52995532 261.72535886 262.53573426 256.5204875 262.54518127 251.31556702 C262.55645922 244.96290787 262.55324061 238.61044613 262.5320583 232.25780928 C262.52162495 229.02339309 262.51948577 225.78936846 262.53065491 222.55494499 C262.59967094 200.52845874 260.45328759 179.76292466 244.3125 163.0546875 C214.64187767 136.6919386 178.49480615 144.58947472 139 144 C139 217.26 139 290.52 139 366 C93.13 366 47.26 366 0 366 C0 245.22 0 124.44 0 0 Z " fill="#F68525" transform="translate(465,136)"/>
<path d="M0 0 C249.76604428 0 249.76604428 0 266.625 6.0625 C267.47634521 6.35850098 268.32769043 6.65450195 269.20483398 6.95947266 C283.32290672 12.07980093 296.53340844 19.27797977 308 29 C308.52255371 29.44037598 309.04510742 29.88075195 309.58349609 30.33447266 C334.95928355 51.96370151 351.06582411 82.69463082 354 116 C354.14633418 120.2606922 354.14355051 124.51885267 354.14044189 128.78175354 C354.14489858 130.69948457 354.14489858 130.69948457 354.1494453 132.65595764 C354.15747281 136.18902188 354.15930248 139.72206576 354.16004276 143.25513804 C354.16190076 147.07195806 354.16945183 150.8887677 354.17617798 154.70558167 C354.1897317 163.04469067 354.19578143 171.38379484 354.20018864 179.72291303 C354.20295614 184.93530646 354.20719441 190.14769806 354.21169281 195.36009026 C354.22388173 209.80719797 354.23418171 224.25430422 354.2375679 238.70141697 C354.23778747 239.6251925 354.23800703 240.54896804 354.23823325 241.50073677 C354.23845153 242.42665375 354.23866981 243.35257073 354.2388947 244.30654579 C354.23933816 246.18263535 354.23978472 248.0587249 354.24023438 249.93481445 C354.2404558 250.86540882 354.24067723 251.79600319 354.24090537 252.75479739 C354.24485101 267.82411738 354.26229955 282.89338895 354.2855939 297.96269024 C354.30934676 313.45435786 354.32177154 328.94600122 354.32293582 344.43768734 C354.32385038 353.12750223 354.32954737 361.81725402 354.34775543 370.50705147 C354.36320964 377.90835728 354.36824566 385.30958047 354.36001733 392.71089936 C354.35612954 396.48189671 354.35694798 400.25272797 354.37107468 404.02370453 C354.47858467 434.51549627 350.2624036 461.26549771 328 484 C313.65483886 497.72314873 298.03860918 504.35541622 279 509 C280.43666016 509.29390625 280.43666016 509.29390625 281.90234375 509.59375 C298.38919011 513.19887374 312.26504736 519.92006857 325 531 C325.80824219 531.69609375 326.61648438 532.3921875 327.44921875 533.109375 C342.52266131 547.10426408 352.09403254 567.62106725 354 588 C354.15043236 592.44146547 354.14349987 596.88097531 354.14044189 601.32466125 C354.14302828 602.68730874 354.1460422 604.04995548 354.1494453 605.41260117 C354.15748692 609.14736102 354.15930329 612.88210161 354.16004276 616.61686909 C354.16189836 620.64917139 354.16944841 624.68146382 354.17617798 628.71376038 C354.18974336 637.52832155 354.1957837 646.34287817 354.20018864 655.15744805 C354.20295505 660.6675242 354.20719322 666.1775986 354.21169281 671.68767357 C354.22388494 686.95997285 354.23418319 702.23227073 354.2375679 717.50457478 C354.23778747 718.48154775 354.23800703 719.45852072 354.23823325 720.46509893 C354.23845153 721.44434669 354.23866981 722.42359446 354.2388947 723.4325164 C354.23933816 725.41668085 354.23978472 727.40084531 354.24023438 729.38500977 C354.2404558 730.36921377 354.24067723 731.35341778 354.24090537 732.36744615 C354.24484859 748.29484986 354.26228832 764.22220768 354.2855939 780.14959369 C354.30935862 796.52378372 354.32177214 812.89795078 354.32293582 829.27215832 C354.3238499 838.45672078 354.32953429 847.6412235 354.34775543 856.82576942 C354.36322593 864.65118097 354.36823631 872.47651433 354.36001733 880.30193827 C354.35613478 884.28797528 354.35692167 888.27385519 354.37107468 892.25987244 C354.43554491 911.5254157 354.30526547 930.16196082 347.875 948.5625 C347.42713135 949.86755493 347.42713135 949.86755493 346.97021484 951.19897461 C340.49402866 969.35382801 330.15631871 984.00913868 317 998 C316.4740625 998.59039063 315.948125 999.18078125 315.40625 999.7890625 C302.64975412 1013.52182082 285.02587738 1022.87735551 267.5 1028.875 C266.70706543 1029.14924805 265.91413086 1029.42349609 265.09716797 1029.70605469 C180.96930098 1056.80064678 88.38334076 1035 0 1035 C0 693.45 0 351.9 0 0 Z M148 142 C148 239.68 148 337.36 148 438 C166.47789041 438 179.3167318 437.42264581 193.02734375 425.19140625 C202.23863194 415.49637426 206.30638546 403.3718258 206.28088379 390.27949524 C206.28682603 389.3182627 206.29276828 388.35703016 206.29889059 387.36666936 C206.3161939 384.15497377 206.31927503 380.9434279 206.32226562 377.73168945 C206.33152696 375.42503035 206.34157695 373.11837431 206.35235596 370.8117218 C206.37855934 364.55120081 206.39148503 358.29072267 206.40037727 352.03015542 C206.40624569 348.11615377 206.4144566 344.20216374 206.42338562 340.28816795 C206.44759362 329.43714614 206.46836116 318.58613717 206.4751358 307.7350893 C206.47557494 307.04149764 206.47601407 306.34790597 206.47646651 305.63329638 C206.47690306 304.93811087 206.47733962 304.24292536 206.4777894 303.52667361 C206.47867631 302.1181242 206.47956944 300.70957479 206.48046875 299.30102539 C206.48091161 298.60234654 206.48135447 297.90366769 206.48181075 297.18381675 C206.48970244 285.86936156 206.52460211 274.55516431 206.57118779 263.2408087 C206.61870403 251.6059068 206.64302834 239.97114689 206.64587164 228.33614701 C206.64796496 221.81096038 206.65972081 215.28613789 206.69551086 208.76104164 C206.72853757 202.62049438 206.73275226 196.48058375 206.71523285 190.33997917 C206.71369558 188.09225379 206.72233182 185.84449371 206.74214935 183.59685516 C206.90023545 165.61578498 206.90023545 165.61578498 198.44736481 150.10709095 C185.39502349 137.27648898 163.62281339 142 148 142 Z M148 580 C148 683.29 148 786.58 148 893 C176.11019099 895.80250293 176.11019099 895.80250293 197.62109375 885.82421875 C198.22050781 885.11910156 198.81992188 884.41398437 199.4375 883.6875 C200.36369141 882.64142578 200.36369141 882.64142578 201.30859375 881.57421875 C205.81111141 874.72165723 206.43689976 868.4785605 206.38095093 860.50039673 C206.3856309 859.46747824 206.39031087 858.43455975 206.39513266 857.3703407 C206.407063 853.92205472 206.39763278 850.47416759 206.38818359 847.02587891 C206.3922502 844.54834258 206.39759258 842.07080806 206.40411377 839.59327698 C206.41636506 833.56974953 206.4145829 827.54637759 206.40587585 821.52285625 C206.39908982 816.624668 206.39818655 811.72651116 206.4014473 806.82831955 C206.401907 806.1301243 206.40236669 805.43192906 206.40284032 804.71257638 C206.40379954 803.29400496 206.40477218 801.87543354 206.4057581 800.45686214 C206.41430592 787.16501476 206.40448808 773.87322952 206.388357 760.58139233 C206.37496025 749.19029812 206.37727776 737.79929567 206.39111328 726.40820312 C206.40719004 713.16574004 206.41347581 699.92333141 206.40427649 686.68085992 C206.40332089 685.26701062 206.40237778 683.8531613 206.4014473 682.43931198 C206.40098447 681.74375911 206.40052164 681.04820623 206.40004479 680.331576 C206.39746074 675.44348629 206.40181337 670.55543128 206.40888596 665.66734695 C206.41820859 659.07961186 206.41151258 652.49202264 206.39420319 645.90429497 C206.39024415 643.48965555 206.39136236 641.07500153 206.39799118 638.66036797 C206.40621976 635.35790734 206.39586858 632.05599641 206.38095093 628.75357056 C206.38764309 627.80374601 206.39433526 626.85392146 206.40123022 625.87531435 C206.28580408 612.65142618 201.15844373 601.71386935 192.2421875 592.07421875 C179.11471787 579.93016584 165.67105079 580 148 580 Z " fill="#F68525" transform="translate(2294,248)"/>
<path d="M0 0 C245.90232767 0 245.90232767 0 261.3125 4.5625 C262.62553101 4.94776855 262.62553101 4.94776855 263.96508789 5.34082031 C283.74858841 11.42586139 300.10626163 21.72272431 315 36 C315.81984375 36.75667969 316.6396875 37.51335937 317.484375 38.29296875 C339.87267073 59.60356702 353.06210652 91.03416507 354.09482813 121.82755756 C354.13426126 125.10564306 354.14288943 128.38244233 354.14044189 131.6607666 C354.14489858 133.5409106 354.14489858 133.5409106 354.1494453 135.4590373 C354.15746084 138.91757162 354.1593018 142.37608512 354.16004276 145.83462763 C354.16190289 149.57307642 354.169455 153.31151465 354.17617798 157.04995728 C354.18972331 165.21559313 354.19578015 173.38122406 354.20018864 181.54686928 C354.20295765 186.65258004 354.2071962 191.75828892 354.21169281 196.86399841 C354.22388079 211.02033621 354.23418085 225.17667251 354.2375679 239.33301544 C354.23778747 240.23794706 354.23800703 241.14287868 354.23823325 242.07523248 C354.23845153 242.98224075 354.23866981 243.88924902 354.2388947 244.82374239 C354.23933816 246.66146628 354.23978472 248.49919017 354.24023438 250.33691406 C354.2404558 251.24847462 354.24067723 252.16003518 354.24090537 253.09921879 C354.24485009 267.85673128 354.26229628 282.61419431 354.2855939 297.37168771 C354.30935983 312.54925324 354.32177214 327.72679399 354.32293582 342.90437841 C354.32384967 351.41539044 354.32952843 359.92633799 354.34775543 368.43733215 C354.36322739 375.68704213 354.36823536 382.93666769 354.36001733 390.18639106 C354.35613569 393.87865912 354.35691713 397.57075759 354.37107468 401.2630043 C354.4869871 433.3824679 350.2270543 460.45525043 327 484 C326.16082031 484.96486328 326.16082031 484.96486328 325.3046875 485.94921875 C313.67321412 499.01178964 295.53394113 505.33572115 279 509 C280.4540625 509.29390625 280.4540625 509.29390625 281.9375 509.59375 C305.79658031 514.77593503 326.51771422 528.47291625 340 549 C350.76916586 566.49095597 354.324636 584.41865032 354.26069641 604.88050842 C354.26372616 606.21818692 354.26761971 607.55586368 354.27228898 608.89353746 C354.28247235 612.52690574 354.28041213 616.16017428 354.27610838 619.79355037 C354.27362329 623.72899527 354.28267744 627.66441724 354.29014587 631.59985352 C354.30284713 639.29460515 354.30469218 646.98932181 354.30234561 654.68408216 C354.30055663 660.94596692 354.30232448 667.20784115 354.30657005 673.46972466 C354.30716524 674.36375702 354.30776043 675.25778938 354.30837366 676.17891363 C354.30958552 677.9956768 354.31079966 679.81243997 354.31201603 681.62920313 C354.32287461 698.64020412 354.32073745 715.65118524 354.31463119 732.66218733 C354.30946732 748.18296532 354.32070646 763.70368045 354.33972941 779.22444601 C354.35916065 795.20224189 354.36735433 811.18000811 354.36360615 827.15781587 C354.36170162 836.11153415 354.36410792 845.06519899 354.37832069 854.01890755 C354.39030332 861.64424601 354.39156325 869.26949818 354.37953053 876.89483798 C354.37368879 880.77597863 354.3724096 884.65696199 354.38453293 888.53809166 C354.50357642 929.44548552 354.50357642 929.44548552 347.8125 947.8125 C347.35967651 949.10329468 347.35967651 949.10329468 346.89770508 950.42016602 C335.43027513 982.14152889 312.40823002 1008.32593431 281.87890625 1023.04296875 C199.67664462 1060.91662269 51.7054278 1035 0 1035 C0 693.45 0 351.9 0 0 Z M148 142 C148 239.68 148 337.36 148 438 C167.6110951 438 179.44741603 437.2335993 193.25 424.125 C202.96282792 413.94873695 206.15005929 402.46132722 206.14717102 388.66513062 C206.15084771 387.72123557 206.1545244 386.77734052 206.1583125 385.80484259 C206.16933129 382.63990907 206.17319013 379.47500841 206.17700195 376.31005859 C206.18326796 374.0414825 206.18991489 371.77290744 206.19691467 369.5043335 C206.21794098 362.05237541 206.22831568 354.60041716 206.23828125 347.1484375 C206.24232933 344.58152887 206.24644627 342.01462035 206.25063133 339.44771194 C206.26749776 328.7691923 206.28213237 318.09067604 206.28938007 307.41214561 C206.2912898 304.64341607 206.29321016 301.87468654 206.29516602 299.10595703 C206.29589163 298.07379247 206.29589163 298.07379247 206.2966319 297.02077611 C206.30492774 285.88018211 206.33025895 274.73969563 206.36274669 263.59914856 C206.39586515 252.14851237 206.4135007 240.69795634 206.41702431 229.24726737 C206.41937329 222.82332588 206.42831439 216.39955445 206.45348549 209.97565842 C206.47679345 203.92964031 206.48098826 197.8839039 206.47072411 191.83785248 C206.47022931 189.62358029 206.47653315 187.40929411 206.49028015 185.19506454 C206.62551349 167.98202223 206.62551349 167.98202223 200.3125 152.1875 C185.06338161 137.76265828 170.38686714 142 148 142 Z M148 580 C148 683.29 148 786.58 148 893 C175.9247159 895.58440385 175.9247159 895.58440385 198.171875 885.03515625 C203.1942156 879.44404631 206.11637571 873.14628701 206.13422108 865.62416172 C206.13867892 864.74988232 206.14313676 863.87560292 206.14772969 862.97483021 C206.14754533 862.01872111 206.14736097 861.06261201 206.14717102 860.07752991 C206.15084771 859.05831292 206.1545244 858.03909593 206.1583125 856.98899359 C206.16935291 853.5630512 206.17319384 850.13713915 206.17700195 846.71118164 C206.18326646 844.25880843 206.18991324 841.80643616 206.19691467 839.35406494 C206.21614545 831.98593507 206.22674474 824.61781325 206.23564246 817.24966565 C206.24002912 813.77611223 206.24539507 810.30256033 206.25063133 806.8290081 C206.26764441 795.27468336 206.28213617 783.72035955 206.28938007 772.16602421 C206.29128984 769.16854412 206.29321019 766.17106404 206.29516602 763.17358398 C206.29589163 762.05612559 206.29589163 762.05612559 206.2966319 760.91609227 C206.30492313 748.86177617 206.3302443 736.8075596 206.36274669 724.75328691 C206.39587661 712.36476957 206.4138343 699.97630269 206.41702431 687.58774084 C206.41918427 680.63723323 206.42785673 673.68687062 206.45348549 666.73640633 C206.47756089 660.19221324 206.48098103 653.64823325 206.47072411 647.10398865 C206.4702297 644.70833914 206.47652185 642.31267663 206.49028015 639.91706657 C206.57803311 623.72495509 206.30302684 610.3125952 196 597 C195.278125 595.96875 194.55625 594.9375 193.8125 593.875 C187.31912091 586.35524809 177.38988025 582.34747006 168 580 C161.4 580 154.8 580 148 580 Z " fill="#F68525" transform="translate(1222,248)"/>
<path d="M0 0 C223.9389694 0 223.9389694 0 243.8125 4.25 C244.84890625 4.46615967 245.8853125 4.68231934 246.953125 4.9050293 C282.45011197 12.5973229 314.01678252 31.02990897 334 62 C355.31838797 96.69538729 357.33465012 135.17837168 357.25693511 174.86145169 C357.25177577 178.65788872 357.25841486 182.45431055 357.26342177 186.2507453 C357.27058633 192.87837784 357.27046267 199.5059777 357.26532745 206.13361168 C357.25771178 215.98971718 357.26165607 225.84579549 357.26774407 235.70190085 C357.2782383 253.31255991 357.27737768 270.92320439 357.27158624 288.53386481 C357.26654313 303.94581113 357.2652473 319.35775212 357.26763153 334.7696991 C357.26786069 336.30676267 357.26786069 336.30676267 357.26809447 337.87487803 C357.26871721 342.035136 357.26935402 346.19539397 357.270014 350.35565194 C357.27612372 389.33406057 357.27059823 428.31245996 357.2598202 467.29086717 C357.25032992 501.87506875 357.25117921 536.45925559 357.26074219 571.04345703 C357.27146546 609.95332709 357.27569031 648.86318899 357.26951766 687.77306032 C357.26887628 691.92547385 357.2682506 696.07788737 357.26763153 700.2303009 C357.26747338 701.25263363 357.26731522 702.27496635 357.26715227 703.32827885 C357.26488311 718.72562463 357.26752707 734.12296449 357.27259064 749.52030945 C357.2783231 767.03836271 357.27684984 784.55639919 357.26602915 802.07445037 C357.26018136 811.86296224 357.25973717 821.65143774 357.2673215 831.43994862 C357.27183825 837.99572171 357.26895801 844.55146593 357.26031196 851.10723478 C357.25559938 854.83066627 357.25383199 858.55402604 357.26112393 862.27745503 C357.35082994 911.8783494 352.04260306 958.28438629 316 995.4375 C242.12315872 1069.2710181 58.48095729 1035 0 1035 C0 693.45 0 351.9 0 0 Z M148 142 C148 389.83 148 637.66 148 893 C183.42229124 895.90688837 183.42229124 895.90688837 199 887 C207.85210186 877.73933959 209.45779309 868.37005183 209.37752342 855.84967804 C209.38188374 854.65758561 209.38624407 853.46549318 209.39073652 852.23727673 C209.39977252 848.94032277 209.39545542 845.64388519 209.38540266 842.34696748 C209.377771 838.75566626 209.38758082 835.16440471 209.39513266 831.57310915 C209.40595601 825.28283618 209.40564626 818.99264048 209.39799118 812.70236397 C209.38663874 803.34847678 209.39244754 793.99465473 209.4016161 784.64076798 C209.41741208 767.93427846 209.41604464 751.22782337 209.40737936 734.52133058 C209.39983345 719.90122536 209.39786224 705.28113276 209.4014473 690.661026 C209.40167645 689.69133555 209.40190561 688.7216451 209.40214171 687.7225701 C209.40307572 683.78630558 209.40403092 679.85004107 209.405021 675.91377656 C209.41419852 638.98668814 209.40587677 602.05962164 209.38973031 565.1325366 C209.37549344 532.32320927 209.37676732 499.51391687 209.39111328 466.70458984 C209.40717629 429.84514883 209.41354766 392.98572719 209.40427649 356.12628317 C209.40331433 352.19718012 209.40237581 348.26807706 209.4014473 344.338974 C209.40121006 343.37152475 209.40097283 342.40407549 209.40072841 341.4073096 C209.39731563 326.79619771 209.40130751 312.18509982 209.40888596 297.57398987 C209.4174598 280.96093104 209.41532763 264.34791202 209.39904372 247.73485816 C209.3902303 238.43648829 209.38966642 229.13820463 209.40098225 219.83983699 C209.40770683 213.62938874 209.40352736 207.41900963 209.39046794 201.20857163 C209.38332955 197.66978096 209.38089564 194.1311616 209.39168589 190.59237629 C209.40319701 186.77826699 209.3914743 182.96442758 209.37752342 179.15032196 C209.38454692 178.05480442 209.39157042 176.95928687 209.39880675 175.83057183 C209.31803346 164.80990776 207.13321417 157.14502431 199.4140625 149.13671875 C185.32982865 136.67057649 165.68537474 142 148 142 Z " fill="#F68525" transform="translate(3521,248)"/>
<path d="M0 0 C223.94069214 0 223.94069214 0 243.8125 4.25 C244.84818115 4.46615967 245.8838623 4.68231934 246.95092773 4.9050293 C262.33504014 8.24061215 276.20048747 13.46322065 290 21 C291.34964844 21.72123047 291.34964844 21.72123047 292.7265625 22.45703125 C322.10678321 39.0611625 341.07911302 67.57387415 350.30859375 99.52514648 C354.36106715 114.23035937 356.15288146 128.89353129 356.13422108 144.12823582 C356.13657331 145.43823133 356.13892554 146.74822685 356.14134905 148.0979192 C356.14772085 151.73012182 356.14791294 155.36230224 356.14707164 158.99450939 C356.1472417 162.94787681 356.15315413 166.90123641 356.1583125 170.85459989 C356.16762447 178.69408163 356.17155818 186.53355772 356.17383147 194.37304429 C356.17679724 203.76437349 356.18549692 213.15569522 356.19424575 222.5470205 C356.21507696 245.24692562 356.22555829 267.94683203 356.23437535 290.64674449 C356.23858419 301.39003691 356.24380589 312.13332878 356.24905988 322.87662074 C356.2669499 359.66671114 356.28194455 396.4568017 356.28938007 433.24689579 C356.28985483 435.55606501 356.29033072 437.86523423 356.29080774 440.17440346 C356.29104411 441.31952157 356.29128049 442.46463968 356.29152403 443.64445834 C356.2927252 449.44599632 356.29394066 455.24753429 356.29516602 461.04907227 C356.29540617 462.20039632 356.29564632 463.35172037 356.29589374 464.53793302 C356.30378329 501.85044661 356.3272081 539.16292837 356.35972196 576.47542806 C356.3940503 615.94242046 356.41373404 655.40939426 356.41702431 694.87640184 C356.41744184 699.21244109 356.4179214 703.54848034 356.41844749 707.88451958 C356.41857069 708.95214139 356.41869388 710.01976321 356.4188208 711.1197372 C356.42114918 728.27273024 356.43678898 745.42568621 356.45728934 762.57866605 C356.47758506 779.83479028 356.48300696 797.09087017 356.47351871 814.34700412 C356.46831818 824.5867107 356.47411248 834.82626925 356.49605338 845.0659544 C356.5096277 851.92176492 356.50842636 858.77747431 356.49565142 865.63328599 C356.48879856 869.52925255 356.48793244 873.42493752 356.50521151 877.32087816 C356.68840938 921.3931657 347.87533741 962.72566671 316 995 C296.46539042 1014.56337926 270.70366983 1025.80180381 243.875 1031.3125 C242.80523926 1031.53341309 242.80523926 1031.53341309 241.71386719 1031.75878906 C162.51822877 1046.6232012 80.57853246 1035 0 1035 C0 693.45 0 351.9 0 0 Z M148 142 C148 389.83 148 637.66 148 893 C179.42647855 895.58209999 179.42647855 895.58209999 199.8125 886.25 C208.31682145 877.50269793 209.30096283 866.73234014 209.25447559 855.12700844 C209.25768207 853.94060044 209.26088855 852.75419245 209.26419219 851.5318327 C209.2710582 848.24163166 209.26899235 844.95157677 209.26313647 841.66137828 C209.25896182 838.08073462 209.26637058 834.50011167 209.27228898 830.91947305 C209.28105135 824.6448146 209.28236296 818.37018879 209.27878571 812.09552574 C209.2734802 802.76481256 209.27957247 793.434131 209.28786864 784.10342126 C209.30311593 766.46975494 209.30481297 748.83610298 209.30234561 731.20243146 C209.30051357 717.58666737 209.30227068 703.970908 209.30657005 690.3551445 C209.30717245 688.39958252 209.30777365 686.44402054 209.30837366 684.48845857 C209.3092809 681.54168382 209.31018957 678.59490908 209.31110601 675.64813434 C209.31953665 648.24749678 209.32387045 620.84686099 209.31969929 593.44622231 C209.31954291 592.4130833 209.31938654 591.37994429 209.31922542 590.31549803 C209.31841963 585.07903632 209.31757386 579.84257462 209.31671212 574.60611291 C209.31645549 573.04612171 209.31645549 573.04612171 209.31619367 571.45461554 C209.31584702 569.35149465 209.31549849 567.24837377 209.31514808 565.14525288 C209.30979025 532.41681158 209.31772263 499.68839721 209.33618164 466.95996094 C209.3568921 430.19648976 209.3676262 393.43303527 209.36360615 356.66955793 C209.3632108 352.7505343 209.36284926 348.83151067 209.36250877 344.91248703 C209.36241804 343.94751108 209.36232731 342.98253512 209.36223383 341.98831748 C209.3610673 327.41378082 209.36772037 312.839261 209.37832069 298.26472855 C209.39036206 281.69188155 209.3919439 265.11907167 209.37953053 248.54622413 C209.37289369 239.27007991 209.37455198 229.9940244 209.38811904 220.71788725 C209.39635071 214.52218717 209.3936827 208.3265537 209.38214377 202.13085907 C209.37587463 198.60045302 209.37431921 195.07022036 209.38600711 191.5398242 C209.39607573 187.73461171 209.38772234 183.92986738 209.37473011 180.12467384 C209.38569413 178.48535302 209.38569413 178.48535302 209.39687964 176.81291461 C209.32472855 166.64437274 207.45968845 157.75748964 200.28125 150.1875 C186.00528205 136.59134005 167.21543293 142 148 142 Z " fill="#F68525" transform="translate(3112,248)"/>
<path d="M0 0 C1.41429916 -0.00713378 2.82860896 -0.01217294 4.24291992 -0.01635742 C5.03051193 -0.01939377 5.81810394 -0.02243011 6.62956238 -0.02555847 C45.02129597 0.38838789 81.76222676 18.47925895 108.50048828 45.4140625 C113.09490687 50.27328477 117.11839604 55.56364325 121 61 C121.39670898 61.55381348 121.79341797 62.10762695 122.20214844 62.67822266 C131.0943036 75.30090897 137.82216877 89.25541624 142.375 104 C142.60147217 104.72074707 142.82794434 105.44149414 143.0612793 106.18408203 C148.2635753 124.22887426 148.43725889 142.42400395 148.37693234 161.04617892 C148.36808046 164.82912993 148.37691135 168.61204977 148.3834005 172.39499992 C148.39238717 179.00781748 148.39045521 185.62055944 148.38115883 192.23337555 C148.36741215 202.06673153 148.37106292 211.90002853 148.37832329 221.73338875 C148.39013585 238.28153778 148.38867051 254.82965964 148.38012505 271.37780952 C148.36867851 293.9730041 148.37787484 316.56815799 148.39268685 339.16334891 C148.39957808 349.69980787 148.4055207 360.23626737 148.41126347 370.77272701 C148.41184021 371.82730147 148.41241694 372.88187594 148.41301116 373.9684072 C148.42652461 399.04282048 148.43112066 424.11723391 148.43383789 449.19165039 C148.43396104 450.28816187 148.43408419 451.38467335 148.43421107 452.51441244 C148.43692744 476.9998865 148.4378394 501.48536027 148.43678741 525.97083445 C148.43636256 535.97445278 148.43605507 545.97807111 148.43579102 555.98168945 C148.43574185 557.6276149 148.43574185 557.6276149 148.43569169 559.30679137 C148.43500603 584.35733505 148.43761067 609.40787115 148.4519434 634.45841122 C148.4528459 636.03737007 148.4528459 636.03737007 148.45376664 637.64822707 C148.45986393 648.15643207 148.46663094 658.66463643 148.47435217 669.17284036 C148.49082777 691.74573636 148.49684633 714.318564 148.48151282 736.89146221 C148.47053937 753.33734141 148.47341346 769.78316861 148.49070387 786.2290429 C148.50050504 796.00072295 148.49902212 805.77225278 148.48156137 815.54392292 C148.47098398 822.06954584 148.47484944 828.59505669 148.4904648 835.12066923 C148.49894045 838.83935096 148.50108572 842.55773868 148.48554879 846.27640421 C148.46894506 850.28349527 148.48327055 854.28988725 148.50057125 858.29697514 C148.49081 859.44928083 148.48104875 860.60158653 148.4709917 861.78881058 C148.54862968 870.4378461 150.41102431 877.07955111 155.1875 884.3125 C163.06784408 891.84260657 170.8512159 893.38334232 181.45703125 893.2734375 C189.82152547 892.62788668 196.55126135 888.28700614 202 882 C205.87582454 875.57016392 207.1237321 869.00508174 207.12715852 861.54229277 C207.13007056 860.47530295 207.13298259 859.40831312 207.13598287 858.30899027 C207.13410266 857.14560482 207.13222245 855.98221938 207.13028526 854.78357983 C207.13222869 853.53573012 207.13417212 852.28788042 207.13617444 851.00221708 C207.14144924 847.53036761 207.14051484 844.05854306 207.13860132 840.58669112 C207.13762785 836.81247035 207.14246027 833.0382564 207.14658034 829.26403838 C207.15301711 822.64619228 207.15579712 816.02835249 207.15620613 809.41050339 C207.15685061 799.56906469 207.16324152 789.72763568 207.17095293 779.88620027 C207.18303499 764.34375713 207.19169378 748.80131442 207.19799107 733.25886793 C207.20802364 708.57878418 207.22727723 683.89871426 207.24953346 659.21863882 C207.25806423 649.72298059 207.26633047 640.22732213 207.27463722 630.7316637 C207.27602474 629.14911497 207.27602474 629.14911497 207.27744028 627.53459556 C207.29943622 602.41425977 207.31922403 577.29392245 207.33789062 552.17358398 C207.3387103 551.0743103 207.33952998 549.97503661 207.3403745 548.8424516 C207.359453 523.20374596 207.37641541 497.5650404 207.38873291 471.92633057 C207.38926258 470.82419111 207.38979225 469.72205166 207.39033796 468.58651405 C207.39458946 459.70308245 207.39876582 450.81965081 207.40292276 441.93621917 C207.42012671 405.29705465 207.44734703 368.657909 207.48608314 332.01876069 C207.49154483 326.84237492 207.49687784 321.66598903 207.50212479 316.48960304 C207.50315917 315.47086318 207.50419355 314.45212332 207.50525927 313.40251255 C207.52157383 297.01695897 207.52711237 280.63141863 207.52842245 264.2458577 C207.52992818 247.77026733 207.54210294 231.29471285 207.56517886 214.81913831 C207.57854259 205.03569562 207.583587 195.25233134 207.5766325 185.46888156 C207.57280159 178.92601447 207.57987903 172.38321665 207.59564828 165.84036763 C207.60431111 162.1173931 207.60838538 158.39457887 207.59907441 154.67160221 C207.49928859 111.15179594 219.94421073 73.22549303 251 42 C251.48194824 41.51402344 251.96389648 41.02804687 252.46044922 40.52734375 C260.20302809 32.82933781 268.66577477 26.63923577 278 21 C278.9600293 20.41605469 278.9600293 20.41605469 279.93945312 19.8203125 C299.7950698 7.97451917 322.45768796 1.43842879 345.484375 0.43359375 C346.86278564 0.36924133 346.86278564 0.36924133 348.26904297 0.30358887 C350.51257211 0.19928956 352.75619526 0.09815896 355 0 C355.05142156 85.93050711 355.09911959 171.86101608 355.12702942 257.79153442 C355.12744359 259.06345213 355.12785776 260.33536985 355.12828448 261.64583052 C355.13704465 288.61519127 355.1452032 315.58455218 355.15263903 342.55391333 C355.15637513 356.10212729 355.16023005 369.65034123 355.16419732 383.19855513 C355.16479507 385.24221339 355.16538943 387.28587166 355.16598364 389.32952992 C355.1751603 420.78768238 355.18688051 452.24583135 355.20599365 483.70397949 C355.2066097 484.71804261 355.2066097 484.71804261 355.20723819 485.75259186 C355.21387505 496.65193767 355.22072597 507.55128334 355.22760532 518.450629 C355.25638792 564.06007316 355.27556588 609.66951092 355.28174497 655.27896493 C355.28260943 661.62586845 355.28358634 667.97277195 355.28463173 674.31967545 C355.284834 675.56882987 355.28503627 676.81798429 355.28524467 678.10499187 C355.288789 698.20815796 355.302701 718.31130413 355.3204961 738.41446209 C355.33816726 758.62780098 355.34490156 778.84112013 355.34050413 799.05446647 C355.33822345 811.06167959 355.34429632 823.06882044 355.36239263 835.07602049 C355.37366253 843.10266194 355.37397673 851.12925619 355.36549544 859.15590093 C355.36097716 863.72563135 355.36111513 868.29522534 355.37464955 872.86494099 C355.4955295 916.26471461 347.66667499 952.91380172 318 986 C317.13318102 987.04655907 316.26988562 988.09604667 315.41015625 989.1484375 C312.25562036 992.88070849 308.74632449 995.88136656 305 999 C304.25878906 999.6290625 303.51757812 1000.258125 302.75390625 1000.90625 C271.81282471 1026.51266231 235.7009538 1035.14724877 196.2421875 1035.16796875 C194.76311209 1035.17119746 193.28403697 1035.17456261 191.80496216 1035.17805481 C188.72413394 1035.18399053 185.64333352 1035.18590056 182.5625 1035.18530273 C179.44818291 1035.18522163 176.33401342 1035.19214745 173.21972656 1035.20581055 C130.36508423 1035.39074828 130.36508423 1035.39074828 112.5 1030.875 C111.6430957 1030.66254639 110.78619141 1030.45009277 109.90332031 1030.23120117 C71.68223197 1020.26337069 38.95362046 994.9637509 19 961 C5.08013713 936.03974693 -0.17757582 909.99546168 -0.12304783 881.63769245 C-0.12378861 880.09510281 -0.1249684 878.55251333 -0.12654433 877.00992432 C-0.12960152 872.77814191 -0.12644809 868.54638368 -0.12226619 864.31460308 C-0.11882261 859.7081657 -0.12120458 855.1017307 -0.12284368 850.49529284 C-0.12491515 842.42452422 -0.12327751 834.35376298 -0.11920547 826.28299522 C-0.11316735 814.28208105 -0.11286996 802.28117153 -0.11374746 790.28025611 C-0.11506107 770.09224486 -0.11172106 749.90423688 -0.10573006 729.71622658 C-0.09981331 709.72718095 -0.09596416 689.73813669 -0.09487724 669.74909019 C-0.0948085 668.50629327 -0.09473976 667.26349634 -0.09466894 665.98303891 C-0.09433061 659.67151716 -0.09402922 653.35999542 -0.09374207 647.04847368 C-0.09164158 602.34245487 -0.08490479 557.63643766 -0.07543945 512.93041992 C-0.07314777 502.09680176 -0.07087239 491.2631836 -0.06866455 480.42956543 C-0.0685276 479.75765192 -0.06839065 479.08573841 -0.06824955 478.39346388 C-0.06190399 447.15052758 -0.0581794 415.90759112 -0.05512976 384.66465434 C-0.05493169 382.63602511 -0.0547325 380.60739587 -0.05453308 378.57876664 C-0.05321328 365.13479273 -0.05193863 351.69081881 -0.05069422 338.2468449 C-0.04815878 310.85985031 -0.04533674 283.47285575 -0.04234314 256.08586121 C-0.04220585 254.82664783 -0.04206856 253.56743446 -0.04192711 252.2700631 C-0.03272624 168.18004133 -0.01688101 84.09002054 0 0 Z " fill="#F68525" transform="translate(2703,248)"/>
<path d="M0 0 C2.00159707 0.00028245 4.00319425 0.00012301 6.00479126 -0.0004425 C11.41100142 -0.00072823 16.81718918 0.00513205 22.22339416 0.01213145 C27.88349146 0.01840253 33.54358933 0.01897175 39.20368958 0.02015686 C49.90957508 0.02325913 60.61545032 0.03145759 71.32133132 0.04150635 C83.51482341 0.05270183 95.708316 0.05818658 107.90181196 0.06320179 C132.97336535 0.07364116 158.04490964 0.09121916 183.11645508 0.11352539 C178.28239525 26.23274529 173.38270925 52.33786173 168.3590436 78.42127275 C167.52526923 82.75200237 166.69307755 87.08303617 165.86068726 91.41403198 C164.43607986 98.8253958 163.01062091 106.23659536 161.58453369 113.64767456 C159.31951749 125.41865487 157.05643453 137.19000646 154.79370117 148.96142578 C154.40818011 150.96698866 154.02265854 152.97255144 153.63713646 154.97811413 C153.05742014 157.9939173 152.4777057 161.00972084 151.89799964 164.02552599 C150.73479734 170.07679769 149.57145926 176.12804327 148.40800798 182.17926711 C141.45919762 218.32072385 134.52276891 254.46454608 127.59297562 290.60965347 C126.73675621 295.07558561 125.88045733 299.54150252 125.0241394 304.00741577 C124.73763304 305.50162156 124.45112671 306.99582735 124.1646204 308.49003315 C124.02284339 309.22943752 123.88106638 309.96884189 123.7349931 310.73065245 C121.46334131 322.57796832 119.19185858 334.4253166 116.92047298 346.2726835 C111.37959007 375.17344926 105.83718656 404.07392342 100.29467392 432.97437668 C99.57321296 436.73630981 98.85176035 440.49824454 98.13031 444.2601797 C88.91729688 492.3005362 79.70169594 540.34039596 70.48467463 588.3799836 C69.27881262 594.66501033 68.07297751 600.95004222 66.86715698 607.2350769 C64.79274242 618.04743164 62.71829251 628.85977959 60.64379883 639.67211914 C60.4714606 640.57035298 60.29912237 641.46858682 60.12156177 642.39403987 C55.35453663 667.23987849 50.58656214 692.08553475 45.81771308 716.93102336 C45.62701922 717.92453028 45.43632537 718.9180372 45.23985291 719.94165039 C45.04914221 720.9352448 44.85843151 721.92883921 44.66194171 722.95254254 C42.20115327 735.77324051 39.74069541 748.59400193 37.28026295 761.41476822 C35.29921395 771.73747521 33.31786005 782.06012359 31.33609241 792.38269264 C29.98542002 799.4181672 28.63510894 806.45371106 27.28505951 813.4893052 C26.51156356 817.52020651 25.73792143 821.55107959 24.96382332 825.58186531 C24.81793032 826.34163534 24.67203733 827.10140536 24.52172333 827.88419873 C24.13247369 829.9112197 23.74315486 831.93822739 23.35382938 833.9652338 C19.57538453 853.67547939 15.84719465 873.39390194 12.11645508 893.11352539 C64.91645508 893.11352539 117.71645508 893.11352539 172.11645508 893.11352539 C172.11645508 908.44710973 172.11645508 908.44710973 170.99145508 915.17602539 C170.79350342 916.37001953 170.79350342 916.37001953 170.59155273 917.58813477 C166.00459946 943.40425461 155.07893577 966.16662261 138.11645508 986.11352539 C137.30563477 987.07129883 136.49481445 988.02907227 135.65942383 989.01586914 C119.02984773 1008.15784952 96.35950459 1021.94985657 72.24145508 1029.42602539 C71.51297363 1029.65636475 70.78449219 1029.8867041 70.03393555 1030.12402344 C53.76591965 1034.86118344 37.39388689 1035.54671186 20.58056641 1035.45410156 C18.39059969 1035.45325306 16.20063212 1035.45373478 14.01066589 1035.45542908 C8.12760428 1035.45628173 2.24473018 1035.43877561 -3.63828826 1035.4177072 C-9.80949281 1035.39881726 -15.98070276 1035.39718033 -22.15193176 1035.39363098 C-33.81027642 1035.38434643 -45.4685356 1035.35978174 -57.1268428 1035.32958251 C-70.41118278 1035.29592608 -83.69551261 1035.27952436 -96.97988546 1035.26449621 C-124.28115247 1035.23322861 -151.58234388 1035.1805387 -178.88354492 1035.11352539 C-175.32065175 1014.76234142 -171.50576099 994.46646209 -167.59439182 974.17988777 C-166.77016413 969.90262486 -165.94817578 965.62493152 -165.12591553 961.34729004 C-163.70682937 953.96625149 -162.28647743 946.58545751 -160.86523438 939.20483398 C-158.59008515 927.38961752 -156.31764798 915.57388024 -154.0456543 903.75805664 C-153.26489977 899.69775252 -152.48413483 895.63745041 -151.70336914 891.57714844 C-151.50889977 890.5658125 -151.31443041 889.55447657 -151.11406803 888.51249409 C-149.72385689 881.28285442 -148.33330343 874.05328064 -146.94262695 866.82373047 C-141.78591988 840.01538287 -136.63578022 813.20578274 -131.49291992 786.39477539 C-131.32465344 785.51757072 -131.15638696 784.64036605 -130.9830215 783.73657942 C-129.12388565 774.04445673 -127.26499229 764.35228754 -125.40621948 754.66009521 C-121.99961134 736.89704382 -118.59210354 719.13416501 -115.18432617 701.37133789 C-115.0146877 700.48709782 -114.84504923 699.60285775 -114.6702702 698.69182253 C-109.19696345 670.16239324 -103.71950185 641.63376348 -98.23901367 613.10571289 C-98.05978088 612.17273715 -97.88054808 611.2397614 -97.69588399 610.27851367 C-95.34788646 598.05636685 -92.99971377 585.83425369 -90.6515007 573.61214828 C-78.91756975 512.53873669 -67.19250738 451.46363672 -55.48193359 390.38574219 C-55.20198033 388.92561498 -54.92202701 387.46548779 -54.64207363 386.0053606 C-54.50302162 385.28011958 -54.36396961 384.55487855 -54.2207039 383.80766052 C-53.6553091 380.85878493 -53.08991221 377.90990974 -52.52451539 374.96103454 C-52.09833257 372.7382328 -51.6721549 370.51543009 -51.2459774 368.29262733 C-46.34151114 342.71271735 -41.43430806 317.13333285 -36.52618337 291.55412459 C-35.95200555 288.56173203 -35.37783356 285.56933835 -34.80366325 282.57694435 C-31.25032223 264.05807763 -27.69688932 245.53922854 -24.14309996 227.02044785 C-22.75419231 219.78282048 -21.36538407 212.54517403 -19.97664624 205.30751407 C-19.01995676 200.32158513 -18.06314747 195.3356792 -17.10623699 190.34979266 C-16.516031 187.27441796 -15.92594655 184.19901995 -15.33589375 181.12361586 C-15.06954019 179.73548362 -14.80314017 178.3473603 -14.53668296 176.95924795 C-12.30752107 165.3461669 -10.0961674 153.72979342 -7.88354492 142.11352539 C-55.73354492 142.11352539 -103.58354492 142.11352539 -152.88354492 142.11352539 C-152.88354492 107.18159593 -141.53150339 75.74622341 -118.88354492 49.11352539 C-118.07272461 48.15575195 -117.2619043 47.19797852 -116.42651367 46.21118164 C-93.0503932 19.30338574 -58.6420794 3.43709975 -23.41460228 0.32469368 C-15.61998658 -0.14144875 -7.80564633 -0.01547489 0 0 Z " fill="#F68525" transform="translate(1983.883544921875,247.886474609375)"/>
<path d="M0 0 C17.97348268 -0.42027424 35.88952734 2.59916462 53 8 C53.65806641 8.20431641 54.31613281 8.40863281 54.99414062 8.61914062 C79.94259928 16.58141466 101.30688664 30.96374567 120 49 C120.78761719 49.73605469 121.57523438 50.47210938 122.38671875 51.23046875 C145.805905 73.66874667 161.33320354 105.59369213 167.00471497 137.26364136 C167.17623669 138.21746858 167.34775842 139.17129579 167.52447778 140.15402687 C169.27729611 150.17466801 170.45675918 160.23399496 171.54956055 170.34423828 C171.77445828 172.37059832 172.00004546 174.39688194 172.22625732 176.4230957 C172.70595066 180.73296818 173.18088028 185.04332712 173.65186119 189.35416031 C174.39667194 196.17128202 175.15238877 202.98716947 175.90937805 209.802948 C177.10395334 220.57033865 178.2912054 231.33852199 179.47533399 242.10706604 C181.601253 261.43826687 183.73935162 280.76812242 185.88083488 300.09760463 C186.63140223 306.87511421 187.37858009 313.65298656 188.1229347 320.43118119 C188.58462312 324.63140795 189.04847671 328.8313937 189.51283264 333.03132629 C189.72786432 334.98075147 189.94193772 336.93028261 190.15499306 338.87992477 C190.44532246 341.53572179 190.73899721 344.19112832 191.03349304 346.84646606 C191.15926878 348.00878209 191.15926878 348.00878209 191.28758544 349.19457924 C191.66058985 352.52911547 192.04886287 355.77524964 193 359 C193.17862092 357.36972319 193.17862092 357.36972319 193.36085033 355.7065115 C196.26916248 329.1674686 199.19160652 302.63001037 202.12857342 276.09412289 C203.54859072 263.26113536 204.96413965 250.42768531 206.36889648 237.59301758 C207.594384 226.39636521 208.82853404 215.20070612 210.0727666 204.00612074 C210.730276 198.08771278 211.38366149 192.16891962 212.02664757 186.24891472 C212.63410271 180.65732754 213.25328154 175.06715393 213.88082695 169.47778702 C214.10710464 167.44480447 214.32938161 165.41137118 214.54696274 163.3774395 C215.69117901 152.70482445 217.20398793 142.22276196 219.46614075 131.72438049 C219.76590475 130.3329478 219.76590475 130.3329478 220.07172459 128.91340536 C225.83377621 103.36932 238.6621701 78.59174779 256 59 C256.42925781 58.51047852 256.85851563 58.02095703 257.30078125 57.51660156 C284.95611125 26.09552418 324.56837034 4.04014325 366.77392578 0.78613281 C372.84606824 0.40605832 378.9187356 0.17239166 385 0 C384.24722403 8.80694281 382.43541808 17.39020005 380.69750977 26.04248047 C380.35045123 27.78491204 380.00373044 29.52741092 379.65731716 31.26997089 C378.70713833 36.04463576 377.75223001 40.81834418 376.79655266 45.59191108 C375.76749173 50.73644093 374.74288913 55.88185874 373.71777344 61.0271759 C371.94017164 69.94636581 370.15985355 78.86500999 368.37771606 87.78329468 C365.77267771 100.81981361 363.17205591 113.85721057 360.57267082 126.89485776 C359.3581309 132.98656434 358.14343366 139.07823954 356.92869568 145.16990662 C356.68583338 146.38781358 356.44297108 147.60572054 356.19274932 148.86053377 C354.44878691 157.60568666 352.70403091 166.35068101 350.95887756 175.09559631 C344.32886841 208.31859131 337.70676489 241.54314935 331.09375 274.76953125 C330.8719484 275.88394215 330.6501468 276.99835304 330.42162395 278.14653397 C328.41887486 288.20917157 326.41625993 298.27183586 324.41383266 308.33453751 C320.5813575 327.5936616 320.5813575 327.5936616 318.77832413 336.65009511 C318.39118394 338.59481412 318.00412919 340.53955015 317.6171608 342.48430336 C316.64997068 347.34439018 315.68119588 352.20415162 314.70939255 357.06331825 C312.89050752 366.16627403 311.08491758 375.27112071 309.33307981 384.38724864 C308.2772633 389.87706137 307.2107704 395.36476469 306.1394043 400.8515625 C305.91727028 401.98984269 305.69513627 403.12812288 305.46627092 404.30089641 C302.48972268 419.46028572 299.23889888 434.53123686 295.72451782 449.57348633 C273.17224922 546.1401736 260.826537 637.87661019 262.25983411 782.34043413 C262.51636495 796.83075208 262.68900864 811.32040247 262.80639648 825.8125 C262.81486642 826.8545724 262.82333636 827.8966448 262.83206297 828.97029515 C262.89069951 836.28225628 262.94506103 843.59424599 262.99804688 850.90625 C263.0567402 858.99727229 263.11618691 867.08828769 263.17747498 875.17929077 C263.1884265 876.64969832 263.1884265 876.64969832 263.19959926 878.14981107 C263.30057954 891.51905676 263.45930988 904.88635819 263.66676141 918.25435784 C263.74652548 923.52601108 263.81581179 928.79781377 263.88487381 934.06961681 C263.94985865 938.92501741 264.03261739 943.77965914 264.12985745 948.63451497 C264.18475805 951.591255 264.22226967 954.5480346 264.25510859 957.5050941 C264.28215553 959.47293166 264.33020806 961.44044712 264.37932497 963.40785754 C264.53477787 981.77570001 257.21178242 998.44760274 245 1012 C244.44699219 1012.63421875 243.89398438 1013.2684375 243.32421875 1013.921875 C238.59190889 1019.02689662 232.98670971 1022.51818975 227 1026 C225.84564453 1026.69802734 225.84564453 1026.69802734 224.66796875 1027.41015625 C208.74541439 1036.28013117 188.29475814 1037.64409411 170.8605957 1032.97753906 C150.83389597 1026.92699411 135.52782187 1014.47487975 124.828125 996.55078125 C119.95839751 987.09227209 116.78308022 976.76278499 116.96189404 966.06810474 C116.98697464 964.3107466 116.98697464 964.3107466 117.01256192 962.51788628 C117.03614643 961.23885835 117.05973095 959.95983042 117.08403015 958.64204407 C117.10531133 957.26070449 117.12602079 955.879356 117.1462096 954.49800003 C117.19086772 951.49310483 117.23849124 948.48827656 117.28826058 945.48346174 C117.41158934 937.97742174 117.51329717 930.47106972 117.61614992 922.96472604 C117.64072777 921.17103116 117.66545234 919.37733829 117.69031719 917.58364736 C120.00051878 766.82551388 120.00051878 766.82551388 100.0625 500.6875 C99.8627282 499.80297197 99.6629564 498.91844394 99.45713091 498.00711203 C95.73809183 481.5802726 91.78602578 465.21302043 87.53761292 448.91496277 C81.14874775 424.37445052 75.91017965 399.74741113 71.23828125 374.82421875 C71.06387536 373.89564316 70.88946947 372.96706757 70.70977855 372.01035333 C69.12464397 363.56680532 67.54994096 355.1213448 65.98996258 346.67311192 C63.61211227 333.79599906 61.18161019 320.92998324 58.70483398 308.0715332 C58.53234292 307.17590742 58.35985186 306.28028165 58.18213379 305.35751569 C57.31017599 300.8315891 56.43725251 296.30584943 55.5639019 291.78019142 C53.98481349 283.59484738 52.41454318 275.40780992 50.84342396 267.22093332 C49.95663366 262.60050185 49.06926145 257.98018216 48.18188477 253.35986328 C48.00395293 252.43339703 47.8260211 251.50693078 47.64269739 250.5523898 C44.59180921 234.66739647 41.53901356 218.78276957 38.48638189 202.89811122 C37.12842457 195.8318393 35.77055641 188.76555024 34.41275024 181.69924927 C34.2222998 180.70810863 34.03184935 179.716968 33.83562768 178.69579279 C33.07133241 174.71824532 32.30703988 170.74069732 31.54275632 166.76314759 C29.52501758 156.26227215 27.50713428 145.76142456 25.4887085 135.26068115 C20.9872034 111.84146403 16.48911505 88.42159558 12 65 C11.84869062 64.21063616 11.69738125 63.42127232 11.54148674 62.60798836 C9.63343987 52.65356103 7.72787088 42.69866485 5.82661057 32.742939 C5.29605448 29.96499272 4.76468012 27.18720501 4.23256302 24.40955734 C3.5115126 20.64534376 2.7934082 16.88057188 2.07568359 13.11572266 C1.86287624 12.00671726 1.65006889 10.89771187 1.43081284 9.75510025 C1.24033497 8.75315502 1.0498571 7.75120979 0.85360718 6.71890259 C0.68755667 5.84959925 0.52150616 4.98029591 0.35042381 4.08465004 C0 2 0 2 0 0 Z " fill="#F68525" transform="translate(3883,248)"/>
<path d="M0 0 C1.41958894 -0.0071256 2.83918842 -0.01216931 4.25878906 -0.01635742 C5.44459564 -0.02091194 5.44459564 -0.02091194 6.65435791 -0.02555847 C44.12513585 0.3827288 78.23923593 17.81059752 105 43 C105.60070313 43.54785156 106.20140625 44.09570312 106.8203125 44.66015625 C126.90517293 63.67071019 139.51112542 91.10729451 145.25 117.75 C145.41330811 118.50571289 145.57661621 119.26142578 145.74487305 120.04003906 C147.98839836 131.08913231 148.14466128 142.12204088 148.12304783 153.36230755 C148.12378861 154.90489719 148.1249684 156.44748667 148.12654433 157.99007568 C148.12960152 162.22185809 148.12644809 166.45361632 148.12226619 170.68539692 C148.11882261 175.2918343 148.12120458 179.8982693 148.12284368 184.50470716 C148.12491515 192.57547578 148.12327751 200.64623702 148.11920547 208.71700478 C148.11316735 220.71791895 148.11286996 232.71882847 148.11374746 244.71974389 C148.11506107 264.90775514 148.11172106 285.09576312 148.10573006 305.28377342 C148.09981331 325.27281905 148.09596416 345.26186331 148.09487724 365.25090981 C148.0948085 366.49370673 148.09473976 367.73650366 148.09466894 369.01696109 C148.09433061 375.32848284 148.09402922 381.64000458 148.09374207 387.95152632 C148.09164158 432.65754513 148.08490479 477.36356234 148.07543945 522.06958008 C148.07314777 532.90319824 148.07087239 543.7368164 148.06866455 554.57043457 C148.0685276 555.24234808 148.06839065 555.91426159 148.06824955 556.60653612 C148.06190399 587.84947242 148.0581794 619.09240888 148.05512976 650.33534566 C148.05493169 652.36397489 148.0547325 654.39260413 148.05453308 656.42123336 C148.05321328 669.86520727 148.05193863 683.30918119 148.05069422 696.7531551 C148.04815878 724.14014969 148.04533674 751.52714425 148.04234314 778.91413879 C148.0421372 780.80295886 148.0421372 780.80295886 148.04192711 782.7299369 C148.03272624 866.81995867 148.01688101 950.90997946 148 1035 C145.76857034 1035.01303972 143.53711852 1035.02232209 141.30566406 1035.0300293 C140.06302795 1035.03560349 138.82039185 1035.04117767 137.5401001 1035.04692078 C133.18797362 1034.98923734 129.03211615 1034.55168909 124.75 1033.8125 C123.95408447 1033.6786792 123.15816895 1033.5448584 122.33813477 1033.40698242 C83.33321759 1026.5002224 49.14520808 1005.02708884 26.16162109 972.68017578 C3.4192334 939.78544856 -0.48293329 905.0667336 -0.36679858 866.10938972 C-0.35639447 861.48581631 -0.36362748 856.8622628 -0.36853105 852.23868489 C-0.37472293 844.15177173 -0.3698714 836.0649251 -0.35761642 827.97801971 C-0.33944488 815.95326683 -0.33861516 803.92855552 -0.34124239 791.90379141 C-0.34517627 771.67220435 -0.33518963 751.44064678 -0.31719017 731.2090683 C-0.29942163 711.18559371 -0.2878888 691.1621314 -0.28463173 671.13864899 C-0.28442551 669.89231168 -0.28421929 668.64597437 -0.28400682 667.36186926 C-0.28299178 661.03200802 -0.28208765 654.70214678 -0.2812262 648.37228552 C-0.27492978 603.57142438 -0.25473351 558.77057802 -0.22631836 513.96972656 C-0.21944311 503.12011725 -0.2126169 492.27050791 -0.20599365 481.42089844 C-0.2055828 480.74796523 -0.20517196 480.07503202 -0.20474866 479.3817069 C-0.18570122 448.07347934 -0.17453475 416.76525042 -0.16538927 385.45701859 C-0.16479508 383.42338736 -0.1641975 381.38975613 -0.16359923 379.3561249 C-0.15963974 365.8786574 -0.15581581 352.40118986 -0.15208265 338.9237223 C-0.14447697 311.47008302 -0.13601084 284.01644403 -0.12702942 256.56280518 C-0.12661755 255.30061094 -0.12620568 254.03841671 -0.12578133 252.73797417 C-0.09819273 168.49197612 -0.0506587 84.24598695 0 0 Z " fill="#F68525" transform="translate(1631,248)"/>
<path d="M0 0 C1.18617448 -0.00327219 2.37234896 -0.00654439 3.59446812 -0.00991574 C4.89638898 -0.00843212 6.19830985 -0.00694849 7.53968287 -0.00541991 C8.9434387 -0.00737322 10.34719399 -0.00976222 11.75094843 -0.01254788 C15.62531099 -0.01895358 19.49965283 -0.01910905 23.37401967 -0.01827047 C27.58277664 -0.01843986 31.79152617 -0.02434473 36.00027943 -0.02951133 C44.35549762 -0.03884397 52.71071051 -0.0427605 61.06593327 -0.0450303 C71.07078561 -0.04799064 81.07563091 -0.05668705 91.08047955 -0.06544458 C115.26418311 -0.08629668 139.44788789 -0.09675989 163.63159834 -0.10557419 C175.06992051 -0.10977951 186.50824215 -0.11500165 197.94656387 -0.12025872 C237.09332498 -0.13814937 276.24008624 -0.15314595 315.38685083 -0.16057891 C317.84486148 -0.16105367 320.30287212 -0.16152955 322.76088277 -0.16200657 C324.58932897 -0.16236113 324.58932897 -0.16236113 326.45471349 -0.16272286 C332.63069338 -0.16392407 338.80667326 -0.16513952 344.98265314 -0.16636485 C346.82112273 -0.16672507 346.82112273 -0.16672507 348.69673312 -0.16709258 C388.44095238 -0.17498665 428.18514181 -0.19842049 467.92934804 -0.23092079 C509.93902985 -0.265211 551.9486942 -0.28492929 593.95839024 -0.28822315 C598.56924582 -0.28864069 603.1801014 -0.28912026 607.79095697 -0.28964633 C608.92629767 -0.28976952 610.06163836 -0.28989271 611.23138332 -0.29001964 C629.51000595 -0.29235264 647.78859396 -0.3080182 666.06720424 -0.32848817 C684.43711188 -0.34873416 702.80697788 -0.35422927 721.17689461 -0.34471754 C732.09209083 -0.33949786 743.00714856 -0.34540219 753.92232489 -0.36725221 C761.21450005 -0.38074726 768.50657975 -0.37969473 775.79875583 -0.36685025 C779.9530416 -0.35994506 784.10706235 -0.35931321 788.26132458 -0.37641034 C792.04607288 -0.39185959 795.83034413 -0.38864563 799.61507863 -0.37100006 C801.60626736 -0.36640032 803.59747263 -0.38129803 805.5886035 -0.39715984 C819.52816173 -0.2903148 831.52862007 3.62954069 842.11546564 12.86708242 C851.03443073 22.12298619 855.95188729 34.92054036 856.37327814 47.62880117 C855.99575724 61.05438826 851.33897246 72.38836981 842.12327814 82.12880117 C833.91225645 89.85859082 823.73384618 95.24941097 812.34280533 95.25760233 C811.15263202 95.26087453 809.96245872 95.26414672 808.73621956 95.26751807 C806.76891412 95.26529264 806.76891412 95.26529264 804.76186514 95.26302224 C803.35184784 95.26497495 801.9418311 95.26736371 800.5318152 95.27015021 C796.63541911 95.27656351 792.73904361 95.27671078 788.84264325 95.27587281 C784.61176948 95.27604204 780.38090314 95.28194523 776.15003306 95.28711367 C767.7487981 95.29645093 759.34756841 95.30036361 750.94632891 95.30263263 C740.88730182 95.30559177 730.82828175 95.31428746 720.76925834 95.32304691 C696.45409654 95.34390388 672.1389335 95.35436296 647.82376484 95.36317652 C636.32455032 95.36738112 624.82533632 95.37260335 613.32612224 95.37786105 C573.97528496 95.39575205 534.62444752 95.41074892 495.27360678 95.41818124 C492.80255705 95.418656 490.33150733 95.41913189 487.8604576 95.4196089 C486.02230139 95.41996347 486.02230139 95.41996347 484.14701071 95.42032519 C477.93817212 95.42152641 471.72933353 95.42274186 465.52049494 95.42396718 C464.28832477 95.42420733 463.0561546 95.42444748 461.78664594 95.42469491 C421.82775691 95.4325896 381.86889755 95.45602451 341.91002148 95.48852313 C299.67894365 95.52280712 257.44788319 95.54253104 215.21679121 95.54582548 C210.58236459 95.54624303 205.94793798 95.5467226 201.31351137 95.54724866 C200.17235673 95.54737185 199.03120209 95.54749504 197.855467 95.54762197 C179.47690237 95.54995575 161.09837216 95.56562562 142.7198198 95.58609051 C124.25236673 95.60632842 105.78495506 95.61183544 87.31749295 95.60231987 C76.34189344 95.59709704 65.36643159 95.60301935 54.39085183 95.62485455 C47.06093077 95.63833668 39.73110474 95.63730855 32.40118279 95.62445259 C28.22368067 95.61753875 24.04644225 95.61694497 19.86896341 95.63401268 C16.06547801 95.64942581 12.26246803 95.646286 8.45899663 95.6286024 C6.45294605 95.62398681 4.44687922 95.6389295 2.44088581 95.65476218 C-10.31496667 95.55711116 -21.68192794 91.54357698 -31.29078436 82.97645742 C-40.68788665 73.28078498 -45.79593792 61.20371211 -45.90406561 47.71864492 C-45.39601134 35.74680195 -41.95707343 26.6989467 -34.87672186 17.12880117 C-34.01047186 15.82942617 -34.01047186 15.82942617 -33.12672186 14.50380117 C-24.40693414 5.2995808 -12.63599385 0.00913636 0 0 Z " fill="#F68525" transform="translate(45.87672185897827,-0.128801167011261)"/>
<path d="M0 0 C1.40725356 -0.00269541 2.81450567 -0.0062644 4.22175506 -0.01062447 C8.09186389 -0.02007248 11.96187847 -0.01708506 15.8319919 -0.01206893 C20.04133148 -0.00880118 24.25065096 -0.01708577 28.45998412 -0.02388728 C35.83857166 -0.0341955 43.21713295 -0.03702964 50.59572697 -0.03497505 C61.56812809 -0.03192721 72.54050013 -0.04024425 83.51289559 -0.0507243 C104.24946179 -0.07007675 124.9860181 -0.07569299 145.72259226 -0.07683842 C161.73535607 -0.07775714 177.74811601 -0.08187192 193.76087856 -0.08823967 C198.36843055 -0.09003473 202.97598254 -0.09181436 207.58353454 -0.09358943 C208.72895349 -0.09403152 209.87437245 -0.09447362 211.05450107 -0.09492911 C243.27780656 -0.10723937 275.5011107 -0.11513005 307.72441864 -0.11424255 C309.54715139 -0.11419582 309.54715139 -0.11419582 311.40670702 -0.11414814 C317.5657604 -0.11398192 323.72481379 -0.11378384 329.88386717 -0.11357872 C331.71871535 -0.11351889 331.71871535 -0.11351889 333.59063117 -0.11345784 C336.06430526 -0.11337697 338.53797935 -0.11329337 341.01165344 -0.11320706 C379.50008505 -0.11198148 417.98848143 -0.1269952 456.47690296 -0.15435219 C499.70846412 -0.18506779 542.94000213 -0.202285 586.17157489 -0.20042574 C590.78069866 -0.20027648 595.38982242 -0.20017907 599.99894619 -0.20011711 C601.13384738 -0.2000938 602.26874858 -0.20007049 603.43804071 -0.20004648 C621.70812753 -0.19998491 639.97818378 -0.21276117 658.24826151 -0.22998164 C676.60772404 -0.24692854 694.96714182 -0.24891934 713.32660785 -0.235763 C724.23515138 -0.22836757 735.143559 -0.23204954 746.05208815 -0.25164768 C753.33972714 -0.26363486 760.62726755 -0.26107064 767.91490198 -0.24670668 C772.06654007 -0.23893305 776.2179149 -0.23742242 780.36953457 -0.25362138 C784.15184905 -0.26824998 787.93368268 -0.26422431 791.71597626 -0.24577365 C793.70584788 -0.24074615 795.69574023 -0.25520081 797.68555847 -0.27061921 C810.02133795 -0.17338458 820.41224608 2.67104046 830.21445179 10.25726891 C831.24570179 10.97914391 832.27695179 11.70101891 833.33945179 12.44476891 C842.43693808 20.35452782 847.51930358 33.64684495 848.37070179 45.41742516 C848.86873718 58.51160554 844.44272654 70.56270262 836.02695179 80.50726891 C827.50247695 89.4967151 816.02046507 95.27008126 803.5645895 95.75866556 C801.04038128 95.7796271 798.51593306 95.77891333 795.99170399 95.76063347 C794.57352285 95.76481325 793.15534599 95.77074361 791.73717856 95.77825093 C787.85063484 95.79377535 783.9644905 95.78453518 780.07795355 95.77113912 C775.84571312 95.76097044 771.61353279 95.77404061 767.38130093 95.78411245 C759.9672109 95.79854859 752.55323741 95.79812752 745.13914204 95.78792381 C734.11412829 95.7727918 723.08921283 95.78052991 712.06419975 95.79275704 C692.37339749 95.81382191 672.68264714 95.81199368 652.99183995 95.80044139 C635.76015047 95.79038139 618.52848002 95.78775133 601.29678822 95.79253197 C600.15401828 95.79283751 599.01124835 95.79314305 597.83384903 95.79345785 C593.19503865 95.79470319 588.55622828 95.79597679 583.91741792 95.7972969 C540.39684723 95.80953445 496.87630962 95.7984366 453.35574403 95.77690931 C414.68558203 95.75792672 376.01547271 95.75962523 337.34531116 95.77875328 C293.90462339 95.8001692 250.46396484 95.80866658 207.02327251 95.79630423 C202.3928868 95.79502135 197.76250109 95.79376999 193.13211536 95.79253197 C191.99198622 95.79221566 190.85185708 95.79189935 189.67717858 95.79157345 C172.45580997 95.78702249 155.23446249 95.79234667 138.01309681 95.80245018 C118.43273343 95.81388036 98.85243011 95.81104252 79.27207422 95.7893272 C68.31199937 95.77757324 57.35205454 95.77682802 46.39198304 95.7919119 C39.07264452 95.80087476 31.75341032 95.7953113 24.43408727 95.77789283 C20.26276453 95.76837039 16.09170027 95.76513913 11.9203856 95.77951676 C8.1225767 95.79247354 4.32525466 95.78689832 0.52748099 95.76679412 C-1.47549443 95.76089078 -3.47849869 95.77450649 -5.48143029 95.78901124 C-18.1825204 95.68353882 -29.77994518 91.71538461 -39.23476696 82.99945641 C-48.75072852 72.9644424 -53.50786224 61.5538647 -53.88320446 47.63617516 C-53.30053527 34.66112717 -49.01629689 24.11109245 -40.28554821 14.50726891 C-39.46054821 13.76476891 -38.63554821 13.02226891 -37.78554821 12.25726891 C-36.89867321 11.43226891 -36.01179821 10.60726891 -35.09804821 9.75726891 C-24.55761903 1.16776749 -13.09571625 -0.04159976 0 0 Z " fill="#F68525" transform="translate(53.78554821014404,1457.7427310943604)"/>
<path d="M0 0 C0.66837891 0.14453613 1.33675781 0.28907227 2.02539062 0.43798828 C12.98256626 2.90417213 23.34090081 6.98405187 33.76025391 11.08691406 C100.82555691 37.4555969 170.59076889 51.93675613 241.92529297 61.09838867 C243.22763634 61.27003288 243.22763634 61.27003288 244.55628967 61.44514465 C246.17566383 61.65826582 247.79595758 61.86455267 249.41722107 62.06278992 C254.77488026 62.77488026 254.77488026 62.77488026 257 65 C255.87021729 65.09498779 254.74043457 65.18997559 253.57641602 65.2878418 C182.65831785 71.30964002 92.68074059 79.81048326 42 136 C34.16693517 145.59934415 32.3959252 157.86195181 32.49879456 169.88276672 C32.49326016 171.11173445 32.48772576 172.34070218 32.48202366 173.60691136 C32.47085759 176.97885337 32.47736074 180.34987816 32.49176037 183.72174823 C32.50295147 187.37355206 32.49090073 191.02529375 32.48191833 194.67709351 C32.46803755 201.81622952 32.47550429 208.95518777 32.49059392 216.09431521 C32.50752371 224.42386652 32.50423485 232.75337441 32.50049984 241.08293762 C32.49463041 255.95628776 32.50875521 270.82955308 32.53344727 285.70288086 C32.55735231 300.10395489 32.56445537 314.50491555 32.55395508 328.90600586 C32.54251875 344.61881454 32.54065026 360.33157086 32.55505317 376.04437894 C32.55657887 377.72337957 32.55809922 379.4023802 32.55961418 381.08138084 C32.5607509 382.32024728 32.5607509 382.32024728 32.56191059 383.58414132 C32.5666335 389.37666709 32.5648161 395.16916933 32.56054878 400.96169472 C32.55559708 408.03275904 32.56171675 415.10371665 32.58144308 422.17475668 C32.59124477 425.77577912 32.59649845 429.37663988 32.58855057 432.97767067 C32.55484028 450.05181565 32.56477755 466.32085078 38.875 482.4375 C39.10574219 483.05302734 39.33648437 483.66855469 39.57421875 484.30273438 C40.32363326 486.23237655 41.15672136 488.10968965 42 490 C42.41330566 491.11000366 42.41330566 491.11000366 42.83496094 492.24243164 C46.32357974 500.20408978 52.82631383 502.44379106 60.5 505.5625 C61.81463789 506.11985885 63.12843399 506.67920716 64.44140625 507.24047852 C68.27807264 508.86828128 72.13630444 510.43744581 76 512 C77.01449219 512.41733398 78.02898437 512.83466797 79.07421875 513.26464844 C109.58782779 525.75629163 140.71994474 531.50457441 173.62084961 532.28491211 C202.84532792 533.01036334 233.87524785 540.62079042 256 561 C256.74636719 561.65355469 257.49273438 562.30710937 258.26171875 562.98046875 C260 565 260 565 260 569 C106.88 569 -46.24 569 -204 569 C-202.70741192 559.95188343 -199.4387063 557.1484134 -192.36376953 551.75195312 C-176.13724359 539.89603943 -157.22046658 530.41344935 -137.20703125 527.50390625 C-136.38940308 527.37985413 -135.5717749 527.255802 -134.72937012 527.12799072 C-128.0606168 526.12699461 -121.37996845 525.2102987 -114.69801331 524.30235291 C-82.57310346 519.9368807 -51.16212739 514.01007187 -20 505 C-19.15985352 504.76039551 -18.31970703 504.52079102 -17.45410156 504.27392578 C-4.57813596 500.54548418 8.30157362 494.58005941 17 484 C19.4422313 478.35056502 20.59302131 473.29489213 21.11816406 467.18896484 C21.19635502 466.36500906 21.27454597 465.54105328 21.35510635 464.69212914 C22.16791555 455.79991041 22.69646222 446.89528304 23.109375 437.9765625 C23.17218281 436.65088194 23.17218281 436.65088194 23.23625946 435.29841995 C24.27712378 412.79265403 24.3124511 390.28796229 24.25754547 367.76250458 C24.24986181 364.31296137 24.24582385 360.86342948 24.24261475 357.41387939 C24.20074568 319.15174169 23.62838493 280.92458282 22.41720581 242.68214417 C22.1007221 232.65879549 21.84139926 222.63539058 21.61548233 212.60961151 C21.5123509 208.13062277 21.39843491 203.65189915 21.28338432 199.17320251 C21.19460633 195.69646157 21.11121088 192.21981563 21.0425415 188.74261475 C20.96473991 184.98009673 20.86400972 181.21883996 20.7578125 177.45703125 C20.74105469 176.37860458 20.72429687 175.30017792 20.70703125 174.18907166 C20.35758697 163.44455673 17.30242385 153.40471584 12.125 144 C11.7542334 143.31139893 11.3834668 142.62279785 11.00146484 141.91333008 C5.25630106 131.52536587 -1.34821117 121.18761876 -8.68994141 111.85083008 C-10 110 -10 110 -10 108 C-10.70898438 107.74347656 -11.41796875 107.48695313 -12.1484375 107.22265625 C-15.23003756 105.90136746 -17.81808662 104.27051072 -20.625 102.4375 C-49.5313057 84.32416019 -83.39654425 76.38249321 -116.75 71.25 C-118.0385791 71.05116211 -119.3271582 70.85232422 -120.65478516 70.64746094 C-140.47906927 67.74755938 -160.36887297 66.62115636 -180.375 65.875 C-182.58725988 65.78827655 -184.79949967 65.70103924 -187.01171875 65.61328125 C-192.34093019 65.40296257 -197.67034937 65.19886249 -203 65 C-195.3621551 44.65189611 -156.44206599 29.1674495 -138.02392578 20.61865234 C-115.50226903 10.52350655 -92.31355368 3.23415397 -68 -1 C-66.91307861 -1.19698486 -66.91307861 -1.19698486 -65.80419922 -1.39794922 C-44.66242435 -5.08625005 -20.93856558 -4.55418662 0 0 Z " fill="#ED272E" transform="translate(423,563)"/>
</svg>
